<svg width="16" height="16" viewBox="0 0 16 16" fill="none" xmlns="http://www.w3.org/2000/svg">
<path d="M12.4 2.40002H4.40001C3.86958 2.40002 3.36087 2.61074 2.9858 2.98581C2.61072 3.36088 2.40001 3.86959 2.40001 4.40002V12.4C2.40001 12.9305 2.61072 13.4392 2.9858 13.8142C3.36087 14.1893 3.86958 14.4 4.40001 14.4H12.4C12.5768 14.4 12.7464 14.3298 12.8714 14.2048C12.9964 14.0797 13.0667 13.9102 13.0667 13.7334V3.06669C13.0667 2.88988 12.9964 2.72031 12.8714 2.59529C12.7464 2.47026 12.5768 2.40002 12.4 2.40002ZM4.40001 3.73336H11.7333V10.4H4.40001C4.17258 10.4018 3.94713 10.4424 3.73334 10.52V4.40002C3.73334 4.22321 3.80358 4.05364 3.9286 3.92862C4.05363 3.8036 4.2232 3.73336 4.40001 3.73336ZM4.40001 13.0667C4.2232 13.0667 4.05363 12.9965 3.9286 12.8714C3.80358 12.7464 3.73334 12.5768 3.73334 12.4C3.73334 12.2232 3.80358 12.0536 3.9286 11.9286C4.05363 11.8036 4.2232 11.7334 4.40001 11.7334H11.7333V13.0667H4.40001Z" fill="#8B949E"/>
</svg>
