<svg width="49" height="50" viewBox="0 0 49 50" fill="none" xmlns="http://www.w3.org/2000/svg">
<path fill-rule="evenodd" clip-rule="evenodd" d="M34.5494 2.26705C35.6817 1.13559 37.2169 0.5 38.8176 0.5C40.4183 0.5 41.9535 1.13559 43.0858 2.26705L46.8329 6.01421C47.9644 7.14648 48.6 8.68169 48.6 10.2824C48.6 11.8831 47.9644 13.4183 46.8329 14.5506L17.1248 44.2587C16.4002 44.9833 15.5031 45.5147 14.5163 45.7942L3.29893 49.0031C2.85494 49.1299 2.38508 49.1357 1.93811 49.0198C1.49113 48.9039 1.08331 48.6704 0.756968 48.3437C0.430625 48.017 0.197641 47.609 0.0821886 47.1619C-0.0332637 46.7148 -0.0269788 46.2449 0.100391 45.8011L3.30584 34.5872C3.58681 33.5989 4.11529 32.6987 4.84127 31.9718L34.5494 2.2636V2.26705ZM39.4283 5.9245C39.3482 5.84417 39.253 5.78044 39.1482 5.73695C39.0434 5.69346 38.9311 5.67108 38.8176 5.67108C38.7041 5.67108 38.5918 5.69346 38.487 5.73695C38.3822 5.78044 38.287 5.84417 38.2069 5.9245L33.8524 10.2824L38.8176 15.251L43.1755 10.8931C43.2558 10.813 43.3196 10.7178 43.363 10.613C43.4065 10.5082 43.4289 10.3959 43.4289 10.2824C43.4289 10.1689 43.4065 10.0566 43.363 9.95178C43.3196 9.84698 43.2558 9.75179 43.1755 9.67166L39.4283 5.9245ZM35.1567 18.9085L30.1915 13.9398L8.50217 35.6327C8.39807 35.7361 8.32206 35.8643 8.28135 36.0053L6.35601 42.744L13.0947 40.8187C13.2357 40.7781 13.364 40.702 13.4673 40.5978L35.1567 18.9085Z" fill="#A5A6A8"/>
</svg>
