<svg width="49" height="52" viewBox="0 0 49 52" fill="none" xmlns="http://www.w3.org/2000/svg">
<path fill-rule="evenodd" clip-rule="evenodd" d="M24.2991 6.97151e-07C21.1225 -0.000972201 18.0292 1.01636 15.4732 2.90269C12.9173 4.78901 11.0333 7.44498 10.0978 10.4808C9.16235 13.5165 9.22463 16.7723 10.2755 19.77C11.3264 22.7678 13.3106 25.3498 15.9368 27.137C11.3789 28.8087 7.4255 31.8062 4.58549 35.7437C1.74548 39.6813 0.148787 44.3786 0.00091243 49.2312C-0.0152054 49.7684 0.182764 50.2901 0.551269 50.6814C0.919774 51.0727 1.42863 51.3016 1.96589 51.3177C2.50315 51.3338 3.02482 51.1359 3.41612 50.7674C3.80741 50.3988 4.0363 49.89 4.05242 49.3527C4.21326 44.0897 6.41704 39.0961 10.1967 35.4302C13.9764 31.7642 19.035 29.714 24.3005 29.714C29.566 29.714 34.6245 31.7642 38.4042 35.4302C42.1839 39.0961 44.3877 44.0897 44.5486 49.3527C44.5506 49.6224 44.6065 49.889 44.713 50.1369C44.8194 50.3847 44.9743 50.6088 45.1685 50.796C45.3627 50.9831 45.5924 51.1296 45.844 51.2269C46.0956 51.3241 46.3641 51.3701 46.6337 51.3622C46.9033 51.3543 47.1686 51.2926 47.4141 51.1808C47.6595 51.069 47.8802 50.9092 48.0631 50.711C48.246 50.5128 48.3875 50.28 48.4792 50.0263C48.571 49.7727 48.6111 49.5033 48.5974 49.2339C48.45 44.3808 46.8536 39.6829 44.0135 35.7449C41.1735 31.8068 37.2198 28.8089 32.6614 27.137C35.2877 25.3498 37.2718 22.7678 38.3227 19.77C39.3736 16.7723 39.4359 13.5165 38.5004 10.4808C37.565 7.44498 35.681 4.78901 33.125 2.90269C30.5691 1.01636 27.4758 -0.000972201 24.2991 6.97151e-07ZM13.4951 14.8555C13.4951 11.9901 14.6334 9.24207 16.6595 7.21593C18.6857 5.18978 21.4337 4.05151 24.2991 4.05151C27.1645 4.05151 29.9126 5.18978 31.9387 7.21593C33.9649 9.24207 35.1031 11.9901 35.1031 14.8555C35.1031 17.7209 33.9649 20.469 31.9387 22.4951C29.9126 24.5213 27.1645 25.6595 24.2991 25.6595C21.4337 25.6595 18.6857 24.5213 16.6595 22.4951C14.6334 20.469 13.4951 17.7209 13.4951 14.8555Z" fill="#A5A6A8"/>
</svg>
