<svg width="49" height="44" viewBox="0 0 49 44" fill="none" xmlns="http://www.w3.org/2000/svg">
<path fill-rule="evenodd" clip-rule="evenodd" d="M4.2525 3.645C4.09138 3.645 3.93686 3.709 3.82293 3.82293C3.709 3.93686 3.645 4.09138 3.645 4.2525V39.4875C3.645 39.8228 3.91716 40.095 4.2525 40.095H44.3475C44.5086 40.095 44.6631 40.031 44.7771 39.9171C44.891 39.8031 44.955 39.6486 44.955 39.4875V11.3894C44.955 11.2283 44.891 11.0738 44.7771 10.9598C44.6631 10.8459 44.5086 10.7819 44.3475 10.7819H23.763C23.0697 10.7821 22.387 10.6129 21.7741 10.2889C21.1613 9.96486 20.6369 9.49595 20.2468 8.92296L16.835 3.9123C16.7792 3.82969 16.7039 3.76209 16.6157 3.71547C16.5276 3.66885 16.4293 3.64465 16.3296 3.645H4.2525ZM0 4.2525C0 1.90512 1.90512 0 4.2525 0H16.332C17.7414 0 19.0536 0.69498 19.8482 1.85895L23.26 6.87204C23.3156 6.95431 23.3905 7.0217 23.4782 7.0683C23.5659 7.1149 23.6637 7.13929 23.763 7.13934H44.3475C46.6949 7.13934 48.6 9.04203 48.6 11.3918V39.4875C48.6 40.6153 48.152 41.697 47.3545 42.4945C46.557 43.292 45.4753 43.74 44.3475 43.74H4.2525C3.12467 43.74 2.04303 43.292 1.24553 42.4945C0.44803 41.697 0 40.6153 0 39.4875V4.2525Z" fill="#A5A6A8"/>
</svg>
