<svg width="49" height="39" viewBox="0 0 49 39" fill="none" xmlns="http://www.w3.org/2000/svg">
<path fill-rule="evenodd" clip-rule="evenodd" d="M7.08652 11.1463C7.08692 9.22452 7.5841 7.33547 8.5298 5.66246C9.47551 3.98946 10.8376 2.58933 12.484 1.59794C14.1303 0.606554 16.005 0.0575785 17.926 0.00428792C19.8471 -0.0490026 21.7493 0.395202 23.448 1.2938C25.1468 2.19239 26.5845 3.51485 27.6215 5.13286C28.6585 6.75086 29.2596 8.60945 29.3665 10.5283C29.4735 12.4471 29.0826 14.361 28.2318 16.0842C27.381 17.8074 26.0992 19.2814 24.5108 20.3632C27.9314 21.6178 30.8983 23.8673 33.0297 26.8223C35.161 29.7773 36.3593 33.3025 36.4703 36.9443C36.4763 37.1439 36.4429 37.3428 36.372 37.5295C36.3011 37.7163 36.1942 37.8872 36.0573 38.0326C35.7807 38.3263 35.3988 38.498 34.9956 38.5101C34.5924 38.5222 34.2009 38.3737 33.9073 38.0971C33.6136 37.8206 33.4418 37.4387 33.4297 37.0355C33.309 33.0857 31.6552 29.3382 28.8186 26.587C25.9821 23.8358 22.1857 22.2972 18.2341 22.2972C14.2826 22.2972 10.4862 23.8358 7.64969 26.587C4.81313 29.3382 3.15926 33.0857 3.03855 37.0355C3.01826 37.4324 2.84331 37.8057 2.55118 38.0752C2.25904 38.3447 1.87297 38.4891 1.47566 38.4775C1.07836 38.4658 0.701419 38.299 0.4256 38.0128C0.149781 37.7266 -0.00297953 37.3438 4.40428e-05 36.9463C0.110621 33.3042 1.30871 29.7786 3.44008 26.8232C5.57145 23.8678 8.53857 21.6179 11.9595 20.3632C10.4569 19.3411 9.22722 17.9668 8.37782 16.3602C7.52842 14.7536 7.0851 12.9636 7.08652 11.1463ZM18.2352 3.03821C16.0848 3.03821 14.0224 3.89246 12.5019 5.41302C10.9813 6.93359 10.1271 8.99591 10.1271 11.1463C10.1271 13.2967 10.9813 15.359 12.5019 16.8796C14.0224 18.4002 16.0848 19.2544 18.2352 19.2544C20.3856 19.2544 22.4479 18.4002 23.9685 16.8796C25.489 15.359 26.3433 13.2967 26.3433 11.1463C26.3433 8.99591 25.489 6.93359 23.9685 5.41302C22.4479 3.89246 20.3856 3.03821 18.2352 3.03821Z" fill="#A5A6A8"/>
<path d="M35.0392 11.1463C34.7392 11.1463 34.4473 11.1666 34.1595 11.2071C33.9585 11.2431 33.7524 11.2382 33.5533 11.1928C33.3543 11.1474 33.1664 11.0624 33.001 10.9428C32.8355 10.8232 32.6958 10.6715 32.5902 10.4967C32.4847 10.322 32.4154 10.1278 32.3865 9.92566C32.3577 9.72355 32.3698 9.5177 32.4222 9.32038C32.4746 9.12307 32.5662 8.93833 32.6916 8.77718C32.8169 8.61604 32.9735 8.4818 33.1518 8.38247C33.3302 8.28314 33.5267 8.22075 33.7297 8.19902C35.7458 7.90754 37.8015 8.29469 39.5734 9.29954C41.3453 10.3044 42.7327 11.8699 43.5174 13.7497C44.3021 15.6295 44.4395 17.7168 43.9079 19.6832C43.3764 21.6496 42.206 23.3835 40.5811 24.6118C42.9697 25.6814 44.9978 27.4193 46.4207 29.6158C47.8436 31.8124 48.6004 34.3737 48.6 36.9909C48.6 37.3941 48.4398 37.7808 48.1547 38.0659C47.8696 38.351 47.4829 38.5112 47.0797 38.5112C46.6765 38.5112 46.2898 38.351 46.0047 38.0659C45.7196 37.7808 45.5595 37.3941 45.5595 36.9909C45.5592 34.729 44.8304 32.5274 43.481 30.7121C42.1316 28.8969 40.2334 27.5646 38.0676 26.9125L36.9851 26.5882V23.1909L37.8162 22.7673C39.0482 22.1432 40.0338 21.1222 40.6141 19.8691C41.1944 18.616 41.3355 17.2038 41.0145 15.8607C40.6936 14.5175 39.9293 13.3217 38.8451 12.4664C37.761 11.611 36.4202 11.1459 35.0392 11.1463Z" fill="#A5A6A8"/>
</svg>
